<svg xmlns="http://www.w3.org/2000/svg" width="42.25" height="42.25"><g><path fill="#e5e5e5" d="M16.15 22.96l3.14 3.14-1.84 1.84-3.14-3.14z"/><path fill="#df4666" d="M4.6 41.92a72.1 72.1 0 0013.58-13.76.47.47 0 00-.04-.62l-3.43-3.42a.47.47 0 00-.61-.05A71.9 71.9 0 00.33 37.65a1.6 1.6 0 00.15 2.1l2.02 2.03a1.6 1.6 0 002.1.14z"/><circle cx="14.6" cy="14.6" r="14.6" transform="translate(13.06)" fill="#687d87"/><circle fill="#e5e5e5" cx="11.46" cy="11.46" r="11.46" transform="translate(16.2 3.14)"/><path d="M36.26 7.02A11.46 11.46 0 0020.09 23.2a9.17 9.17 0 01-.53-.5 11.46 11.46 0 0116.2-16.2l.5.52z" fill="#c6c1c1"/><path d="M5.55 41.18l-.62.49-4.35-4.34c.16-.2.32-.43.5-.63zm11.28-11.29l-4.47-4.47c.57-.47 1.15-.91 1.73-1.36a.48.48 0 01.63.05l3.42 3.43a.47.47 0 01.05.62l-1.36 1.73z" fill="#f1b974"/><path fill="#df4666" d="M27.66 10.96c-6.1-5.8-12.9 3.88 0 11.2 12.9-7.32 6.08-17 0-11.2z"/><path d="M23.9 19.52c-7.56-6.74-1.62-13.68 3.76-8.57-4.97-3.75-9.88 2.32-3.75 8.57zm7.5 0c7.57-6.74 1.63-13.68-3.74-8.57 4.96-3.75 9.86 2.32 3.75 8.57z" fill="#d1395d"/><path d="M24.8 10.2a2.76 2.76 0 00-1.69.47 2.4 2.4 0 00-.95 1.33.3.3 0 01-.56-.15.42.42 0 00.01-.05 2.82 2.82 0 011.36-1.4 2.98 2.98 0 011.83-.2zm5.71 0a2.76 2.76 0 011.69.47 2.4 2.4 0 01.95 1.33.3.3 0 00.56-.15.42.42 0 01-.01-.05 2.82 2.82 0 00-1.36-1.4 2.98 2.98 0 00-1.83-.2z" fill="#f05c80"/></g></svg>