<svg xmlns="http://www.w3.org/2000/svg" width="24" height="24"><path d="M22.67 2.67H21.1a4 4 0 00-7.55 0H1.33a1.33 1.33 0 100 2.66h12.23a4 4 0 007.55 0h1.56a1.33 1.33 0 000-2.66zm-5.34 2.66A1.33 1.33 0 1016 4a1.33 1.33 0 001.33 1.33zM0 12a1.33 1.33 0 011.33-1.33H2.9a4 4 0 017.55 0h12.23a1.33 1.33 0 010 2.66H10.44a4 4 0 01-7.55 0H1.33A1.33 1.33 0 010 12zm6.67 1.33A1.33 1.33 0 105.33 12a1.33 1.33 0 001.34 1.33zm-5.34 5.34a1.33 1.33 0 100 2.66h12.23a4 4 0 007.55 0h1.56a1.33 1.33 0 000-2.66H21.1a4 4 0 00-7.55 0zM18.67 20a1.33 1.33 0 11-1.34-1.33A1.33 1.33 0 0118.67 20z" fill="#686e7b" fill-rule="evenodd"/></svg>