<svg xmlns="http://www.w3.org/2000/svg" xmlns:xlink="http://www.w3.org/1999/xlink" width="309.8" height="221.5">
  <defs>
    <linearGradient id="a" x1=".5" y1="1" x2=".5" gradientUnits="objectBoundingBox">
      <stop offset="0" stop-color="gray" stop-opacity=".3"/>
      <stop offset=".5" stop-color="gray" stop-opacity=".1"/>
      <stop offset="1" stop-color="gray" stop-opacity=".1"/>
    </linearGradient>
    <linearGradient id="b" x1=".5" y1="1" x2=".5" y2="0" xlink:href="#a"/>
    <linearGradient id="c" x1=".5" y1="1" x2=".5" y2="0" xlink:href="#a"/>
    <style>
      .a,.r{fill:#ff8c80}.a,.e,.j{opacity:.1}.d{fill:#ffbdc6}.f{fill:#7679b4}.g{fill:#a66477}.l{fill:#493545}.m{opacity:.05}.n{fill:#3e3d77}.o{fill:#c77485}.q,.t{fill:none;stroke-miterlimit:10}.q{stroke:#535461;stroke-width:2px}.t{stroke:#ff8c80}.u{fill:#a8a8a8}.v{opacity:.2}.w{fill:#ffd037}.x{fill:#2f2e41}.y{fill:#9f616a}.z{fill:#38376b}.aa{fill:#fff}
    </style>
  </defs>
  <g transform="translate(-8)">
    <path class="a" d="M30 54c6 15-2 32-12 44-3 5-7 9-7 15-1 6 4 12 9 16a39 39 0 0034 6c10-3 19-10 29-13 17-5 34 3 49 13 10 7 21 15 33 14 8-1 16-7 21-14 2-4 4-8 8-10a20 20 0 017-2c22-5 45 6 67 0 15-4 27-15 34-29s11-29 14-44c2-10 4-22-1-32S299 1 287 0s-23 2-33 7c-14 6-27 14-41 14-10 0-19-4-29-7A304 304 0 0089 2C78 3 68 7 57 9c-7 1-14 0-20 3-9 2-18 8-18 18-1 9 7 16 11 24z"/>
    <path d="M266 487z" transform="translate(-115 -359)" fill="url(#a)"/>
    <path d="M206 288l-2-1a13 13 0 002-5c-2 1-4-1-5-2l-4-6a18 18 0 00-2-2 3 3 0 00-2 0l-2 1a3 3 0 01-2 0l-7-2a8 8 0 00-3 0l-3 2-4 1a30 30 0 01-4 0 10 10 0 00-3 1l-4 3a2 2 0 00-1 1 2 2 0 000 1 13 13 0 002 3 9 9 0 011 3 5 5 0 011 1 10 10 0 010 1 18 18 0 01-2 4 7 7 0 000 2 3 3 0 000 1l2 6a4 4 0 01-2 3l1 1a3 3 0 01-1 0 6 6 0 001 0 15 15 0 00-3 4c-4 7-30 21-30 21v1c-2 1-8 6-3 11l6-8 1-1a1 1 0 010 1l17-10 8-5a14 14 0 014-2v1a8 8 0 012-1c3 0 6 3 7 11 2 12 1 14 0 15h1v2h-5 1l2-2c0-2-3-3-5-3l-17 1s-2 3 5 3v1a77 77 0 019 6h-1c4 1 8 18 11 25s7 7 11 6 4-12 4-13v-1l7 9 1 1h1c5 2 10-2 9-8a147 147 0 00-11-27 4 4 0 001-1 103 103 0 01-2-15l2-1 1-8s2-5 0-8a5 5 0 01-1-2c0-2 0-5 5-8l9-8s1-3-4-4zm-14 5v-3h4a10 10 0 002-1l1 1a34 34 0 01-7 3zm-19 58l1 1 1 3a25 25 0 00-2-4z" transform="translate(-21 -215)" fill="url(#b)"/>
    <path class="d" d="M163 133l-1 1v4l-4 3-1-1a72 72 0 00-8-6 9 9 0 00-2-1z"/>
    <path class="e" d="M163 133l-1 1a13 13 0 01-2 0h-10-1a9 9 0 00-2-1z"/>
    <path class="f" d="M160 134s4 1 5-1-3-3-5-4-16 1-16 1-3 3 6 4z"/>
    <path class="e" d="M163 133l-1 1v4l-4 3-1-1a72 72 0 00-8-6 9 9 0 00-2-1z"/>
    <path class="e" d="M163 133l-1 1a13 13 0 01-2 0h-10-1a9 9 0 00-2-1z"/>
    <path class="e" d="M160 134s4 1 5-1-3-3-5-4-16 1-16 1-3 3 6 4z"/>
    <path class="g" d="M145 67h25v29h-25z"/>
    <path class="e" d="M145 67h25v29h-25z"/>
    <path class="d" d="M116 117a4 4 0 00-2 1l-6 9c-4-6 1-10 3-12h1zM162 76s2 9 6 11-6 5-6 5l-13-4s8-3 6-10zM148 128v3l-1 2-4 3-1-1a72 72 0 00-8-6 9 9 0 00-2-1z"/>
    <path class="e" d="M148 128v1a13 13 0 01-3 0h-11a9 9 0 00-2-1z"/>
    <path class="f" d="M145 129s5 1 5-1-2-3-5-4-16 1-16 1-2 3 7 4z"/>
    <path class="e" d="M148 131l-1 2-4 3-1-1 6-5z"/>
    <path class="f" d="M175 162l-1-1-7-9v1c0 1-1 12-4 13-4 1-9 1-11-6s-6-23-10-24l6-5 5 9s-3-13 0-16h20l5 13 6 17a6 6 0 01-9 8z"/>
    <path class="e" d="M174 127c-3 2-17 1-21 1h-1v-2l3-8 18-10a15 15 0 00-1 4 107 107 0 002 15z"/>
    <path d="M174 126c-3 2-17 2-21 1h-1 1l2-9 18-11a15 15 0 00-1 5 107 107 0 002 14z" fill="#f2f1f2"/>
    <path class="e" d="M172 112c-3 1-11 3-14 9-2 4-4 6-5 6h-1 1l2-10 18-10a15 15 0 00-1 5zM112 115l4 2a4 4 0 00-2 1l-3-3h1zM151 127z"/>
    <path d="M160 86a8 8 0 01-6-2s-11 3-14 10-29 21-29 21 4 2 4 4l16-10 8-5c2-1 10-7 12 9s0 14 0 14 3 1 7-7 16-9 16-9l1-8s2-5 0-8a5 5 0 01-1-2c0-2 0-5 5-8l9-8s0-3-4-4l-21-8v3l13 9s-7 5-12 5c0 0 1 4-4 4z" fill="#565388"/>
    <path class="e" d="M163 80a27 27 0 01-1-4l-7 2a8 8 0 010 4 8 8 0 008-2z"/>
    <circle class="d" cx="7.8" cy="7.8" r="7.8" transform="translate(149 67)"/>
    <path class="e" d="M161 57l6 2a3 3 0 002 0l2-2a2 2 0 012 1 17 17 0 012 2l3 5 6 3c-1 5-6 9-10 9h-6a5 5 0 01-1 0l-3-1-4-7a4 4 0 00-2-1 4 4 0 00-2 0 10 10 0 00-3 3 4 4 0 00-1 4 10 10 0 010 2l-1 3a13 13 0 000 2 6 6 0 01-2 4 3 3 0 00-1 1l-1 1a2 2 0 01-2 2 6 6 0 01-3 0 4 4 0 002-4l-3-6a7 7 0 011-2 18 18 0 001-4 6 6 0 000-3 10 10 0 00-1-2 13 13 0 01-2-4 2 2 0 010-1 2 2 0 011-1l4-3a9 9 0 012 0 28 28 0 004 0l4-1 3-2a7 7 0 013 0zM165 137s5 9 4 12M174 161l-7-9v1s0-3 1-2l7 6-1 4z"/>
    <g class="j">
      <path d="M164 82a3 3 0 01-1 3 3 3 0 003-3 9 9 0 01-2 0zM112 114s26-13 29-21c3-5 9-8 13-9-3 1-11 4-14 10-4 7-29 21-29 21zM169 81a30 30 0 008-5l-13-9 1-1-2-1v3l13 9a32 32 0 01-7 4zM169 112a32 32 0 015-1 35 35 0 00-5 1zM153 127v-14c-2-13-8-12-11-11 4-1 8 0 9 11 2 12 1 14 1 14a3 3 0 001 0zM152 127a1 1 0 01-1 0h1z"/>
    </g>
    <path class="g" d="M161 57l6 1a3 3 0 002 0l2-1a2 2 0 012 1 17 17 0 012 2l3 5c1 2 4 3 6 2-1 5-6 9-10 10h-6a5 5 0 01-1 0l-3-2-4-6a4 4 0 00-2-1 4 4 0 00-2 0 10 10 0 00-3 2 4 4 0 00-1 4 10 10 0 010 2l-1 4a13 13 0 000 1 6 6 0 01-2 4 3 3 0 00-1 2l-1 1a2 2 0 01-2 2 6 6 0 01-3 0 4 4 0 002-4c-1-3-3-4-3-7a7 7 0 011-2 18 18 0 001-3 6 6 0 000-3 10 10 0 00-1-3 13 13 0 01-2-3 2 2 0 010-1 2 2 0 011-1c1-1 2-3 4-3a9 9 0 012 0 28 28 0 004 0l4-1 3-2a7 7 0 013 0z"/>
    <path d="M818 204v-1c-1-3-5-10-7-8-1 2 1 6 2 8v1-1l-5 15c-1 0-4 12-10 13l-2 1a21 21 0 001-3l-1-4-1-1a4 4 0 010-1l-1-5h1l4-4a2 2 0 01-1 0 3 3 0 000-1c-1 1-3-1-4-1-3-2-5 0-8 0l-9-1c-1 0-3 1-3 3a11 11 0 001 3c1 2-1 4-2 5a9 9 0 00-2 4c-3-3-6-6-6-8l-8-14-1 1v-1c-1-3-4-10-8-9s2 9 4 12l9 16 3 4s12 15 12 18 5 10 5 10 2 13-1 15v1c-2 2-5 7-1 16l6 18-13 1-10 1c-1-1-3-2-5 0-3 3-5 12-5 12s-1 7 2 5l6-6 2-2a11 11 0 016-1 102 102 0 0011 0l-3 10s-1 7 2 6c2 0 5-5 6-8l7-4 17-6s4-2 2-10l-8-22h-1v-2a28 28 0 01-2-7 3 3 0 001-1s-2-15 0-17v-1a12 12 0 002-7v-1a10 10 0 00-1-2 8 8 0 010-2v-2h1v-1l10-14 2-5 4-15zm-22 103l-1-6 3 5s0 1-2 1z" transform="translate(-539 -170)" fill="url(#c)"/>
    <path class="l" d="M224 137s-2-3-5 0-5 11-5 11-1 8 3 6l5-7 3-3zM244 144s-2-1-3 0l-4 10s0 7 2 6 8-10 8-10z"/>
    <path class="m" d="M244 144s-2-1-3 0l-4 10s0 7 2 6 8-10 8-10z"/>
    <path class="n" d="M253 126l6 9s0 2-4 1l-12 8s-1 9 2 8c1 0 5-4 8-3l16-7s3-2 1-9l-8-24-11 6z"/>
    <path class="m" d="M253 126l6 9s0 2-4 1l-12 8s-1 9 2 8c1 0 5-4 8-3l16-7s3-2 1-9l-8-24-11 6z"/>
    <path class="n" d="M257 139c1 5-4 6-4 6h-23l-6 1c-4-3-1-9-1-9l11-1 13-1-7-18c-3-9-1-14 1-16a9 9 0 012-2l17 1a22 22 0 000 3 27 27 0 002 8l-7 6 2 22z"/>
    <path class="e" d="M225 137l10-1 13-1-6-17c-4-9-1-14 1-17a9 9 0 012-1h15l-17-1a9 9 0 00-2 2c-2 2-4 7-1 16l7 18-13 1-11 1s-3 6 1 9l1-1c-3-3 0-8 0-8z"/>
    <path class="l" d="M241 49h9v21h-9z"/>
    <path class="e" d="M241 49h9v21h-9z"/>
    <path class="l" d="M254 46h1a3 3 0 010 1l1 7a4 4 0 000 1l1 1a4 4 0 011 3 21 21 0 01-1 4 31 31 0 01-2 4c0 2-1 2-2 1l-1-5-1-9a35 35 0 011-7v-5l2 4z"/>
    <path class="e" d="M254 46h1a3 3 0 010 1l1 7a4 4 0 000 1l1 1a4 4 0 011 3 21 21 0 01-1 4 31 31 0 01-2 4c0 2-1 2-2 1l-1-5-1-9a35 35 0 011-7v-5l2 4z"/>
    <path class="o" d="M219 37l-4 2-1-1c-2-3-7-10-3-11s6 5 7 8l1 2zM278 36c-2 2-4 0-4 0v-1c-1-2-4-6-2-8s6 4 6 8a2 2 0 010 1zM244 58s3 8 2 11 6 6 6 6h8s2-6 2-8-7-2-7-2-3 0-3-10z"/>
    <path class="e" d="M219 37l-4 2-1-1c2 0 3-2 4-3l1 2zM278 36c-2 2-4 0-4 0v-1h4a2 2 0 010 1zM260 103c-4 1-18-2-19-2a9 9 0 012-2l17 1a22 22 0 000 3z"/>
    <path d="M246 65s-3 1-8-3c0 0-10-10-11-13l-8-14s-4 4-5 3l9 16 3 4 12 17 5 11s1 12-2 14c0 0 16 4 20 2 0 0-2-16 0-17 0 0 4-6 1-12l1-5 10-14 2-4 3-15h-4l-5 14s-5 12-10 13l-6 2s10 6 5 9-12-8-12-8z" fill="#ffaac4"/>
    <path class="e" d="M252 60a26 26 0 010-4l-8 2a10 10 0 011 2l3 1a7 7 0 004-1z"/>
    <circle class="o" cx="7.1" cy="7.1" r="7.1" transform="translate(241 47)"/>
    <path class="e" d="M239 43l-3 2a11 11 0 001 3c1 2-1 4-2 6s-2 3-1 5a14 14 0 001 2l1 6a11 11 0 0013 7 7 7 0 01-1-4v-4l-4-3a5 5 0 010-4l2-5a13 13 0 010-1c1-2 2-3 4-3l6-1c2 0 3-2 4-4l-5-2h-16z"/>
    <path class="l" d="M239 42l-3 3a11 11 0 001 3l-2 5c-1 1-3 4-2 6a14 14 0 001 1c2 2 2 4 2 6a11 11 0 0013 8 7 7 0 01-1-4v-4l-4-3a5 5 0 010-5l1-4a13 13 0 011-1c0-2 2-3 4-4l6-1 3-3-4-2h-8l-8-1z"/>
    <path class="e" d="M255 69a23 23 0 013 4M261 84a31 31 0 00-5 1 24 24 0 01-6 0"/>
    <g class="j">
      <path d="M258 73a3 3 0 01-1 0 4 4 0 003 0c5-3-5-9-5-9h-2s10 6 5 9zM278 35a16 16 0 01-2 0 8 8 0 002 0zM243 100c3-2 1-14 1-14s-5-8-5-11-11-17-11-17l-3-4-11-16 9 16 3 4 12 17 5 11s1 12-2 14c0 0 10 3 16 3a82 82 0 01-14-3zM246 65z"/>
    </g>
    <g class="j">
      <path d="M278 35l-3 14-2 4-10 14c-2 2-1 5-1 5a5 5 0 011-4c2-1 10-14 10-14l2-4 3-15zM261 83v2s3-4 2-9a12 12 0 01-2 7z"/>
    </g>
    <ellipse class="a" cx="143.2" cy="13.8" rx="143.2" ry="13.8" transform="translate(14 194)"/>
    <path class="q" d="M102 194s-5-17 1-29a26 26 0 002-16 44 44 0 00-2-8"/>
    <path class="r" d="M106 133l-4 8-3-8a4 4 0 117 0zM112 145l-7 4 1-8a4 4 0 116 4zM112 164h-9l6-7a4 4 0 113 7zM108 178l-8 2 4-8a4 4 0 014 6zM97 150l8 2s-1-6-3-8a4 4 0 10-5 6zM93 167h9l-5-7a4 4 0 00-4 7zM92 184l8 1s-2-6-4-7a4 4 0 10-4 6z"/>
    <path class="a" d="M106 133l-4 8-3-8a4 4 0 117 0zM112 145l-7 4 1-8a4 4 0 116 4zM112 164h-9l6-7a4 4 0 113 7zM108 178l-8 2 4-8a4 4 0 014 6zM97 150l8 2s-1-6-3-8a4 4 0 10-5 6zM93 167h9l-5-7a4 4 0 00-4 7zM92 184l8 1s-2-6-4-7a4 4 0 10-4 6z"/>
    <path class="q" d="M200 194s-4-16 1-29a26 26 0 003-16 44 44 0 00-3-8"/>
    <path class="r" d="M205 134l-4 7-4-7a4 4 0 018 0zM211 145l-8 4 2-8a4 4 0 116 4zM211 164h-9s3-6 5-7a4 4 0 114 7zM207 178c-2 2-8 2-8 2l4-7a4 4 0 014 5zM196 150l8 3-3-8a4 4 0 10-5 5zM192 167h9l-6-7a4 4 0 00-3 7zM190 184l9 2-4-8a4 4 0 00-5 6z"/>
    <path class="a" d="M205 134l-4 7-4-7a4 4 0 018 0zM211 145l-8 4 2-8a4 4 0 116 4zM211 164h-9s3-6 5-7a4 4 0 114 7zM207 178c-2 2-8 2-8 2l4-7a4 4 0 014 5zM196 150l8 3-3-8a4 4 0 10-5 5zM192 167h9l-6-7a4 4 0 00-3 7zM190 184l9 2-4-8a4 4 0 00-5 6z"/>
    <path d="M126 14h-2a1 1 0 100-3h-13a1 1 0 000 3h2a1 1 0 100 2h-2a1 1 0 100 2h13a1 1 0 100-2h2a1 1 0 000-2z" fill="#dee3f3" opacity=".5"/>
    <path class="t" d="M17 172s6 12 1 18 0 24 0 24"/>
    <path class="r" d="M19 169a7 7 0 01-2 4 6 6 0 010-8 7 7 0 012 4z"/>
    <path class="t" d="M20 172s-6 12-1 18-1 24-1 24"/>
    <path class="r" d="M18 169a7 7 0 002 4 6 6 0 000-8 7 7 0 00-2 4z"/>
    <path class="e" d="M18 169a7 7 0 002 4 6 6 0 000-8 7 7 0 00-2 4z"/>
    <path class="t" d="M22 172s6 12 1 18 1 24 1 24"/>
    <path class="r" d="M24 169a7 7 0 01-2 4 6 6 0 010-8 7 7 0 012 4zM23 178a7 7 0 01-4 2 6 6 0 016-6 7 7 0 01-2 4zM23 186a7 7 0 01-4 2 6 6 0 016-6 7 7 0 01-2 4zM15 190a7 7 0 011 4 6 6 0 01-5-6 7 7 0 014 2zM16 173a7 7 0 013 4 6 6 0 01-7-4 7 7 0 014 0z"/>
    <path class="e" d="M16 173a7 7 0 013 4 6 6 0 01-7-4 7 7 0 014 0z"/>
    <path class="t" d="M25 172s-5 12-1 18 0 24 0 24"/>
    <path class="r" d="M24 169a7 7 0 001 4 6 6 0 000-8 7 7 0 00-1 4z"/>
    <path class="e" d="M24 169a7 7 0 001 4 6 6 0 000-8 7 7 0 00-1 4z"/>
    <path class="r" d="M24 178a7 7 0 00-2 4 7 7 0 004-2 7 7 0 002-4 7 7 0 00-4 2z"/>
    <path class="e" d="M24 178a7 7 0 00-2 4 7 7 0 004-2 7 7 0 002-4 7 7 0 00-4 2z"/>
    <path class="r" d="M27 189a7 7 0 00-1 4 7 7 0 004-2 7 7 0 001-4 7 7 0 00-4 2z"/>
    <path class="t" d="M23 187s3-6 8-6M20 183s-4-5-9-5M20 191s3-5 8-5"/>
    <circle class="r" cx=".9" cy=".9" r=".9" transform="translate(30 180)"/>
    <circle class="r" cx=".9" cy=".9" r=".9" transform="translate(11 177)"/>
    <path class="t" d="M22 193s-3-5-8-6"/>
    <circle class="r" cx=".9" cy=".9" r=".9" transform="translate(13 187)"/>
    <circle class="r" cx=".9" cy=".9" r=".9" transform="translate(27 185)"/>
    <path class="u" d="M42 207s-9-2-11-4-13-6-14-3-15 12-5 14 22 2 25 1 5-8 5-8z"/>
    <path class="v" d="M12 213c9 1 22 2 25 1 2-1 4-5 4-7h1s-2 7-5 8-16 0-25-1l-4-3 4 2z"/>
    <path class="r" d="M300 175s2 4-2 9-7 10-6 14c0 0 6-10 11-11s2-6-3-12z"/>
    <path class="e" d="M300 175a5 5 0 010 1c5 6 8 11 3 11-4 1-10 8-11 10a4 4 0 000 1s6-10 11-11 2-6-3-12z"/>
    <path class="w" d="M305 180v2l-1-2 1-1v1z"/>
    <path class="w" d="M307 181l-3 1 2-1h1c0 1 1 0 0 0z"/>
    <path class="r" d="M285 175s-3 4 1 9 8 10 6 14c0 0-6-10-11-11s-2-6 4-12z"/>
    <path class="e" d="M285 175a5 5 0 00-1 1c-5 6-7 11-3 11 5 1 10 8 11 10a4 4 0 010 1s-6-10-11-11-2-6 4-12z"/>
    <path class="w" d="M280 180v-1 1zM278 181l2 1-2-1h-1 1z"/>
    <path class="u" d="M281 197s7 0 10-2 12-3 12-1 12 14 3 14-20-1-23-3-2-8-2-8z"/>
    <path class="v" d="M306 207c-8 0-20-1-22-3-2-1-3-5-3-7s0 7 2 8 14 3 23 3c3 0 4-1 4-2l-4 1z"/>
  </g>
  <g transform="translate(2)">
    <path class="x" d="M12 72c0 16 6 18 13 16a27 27 0 0019-16l2-5a15 15 0 00-7-19 15 15 0 00-20 7c-7 3-9 9-7 17z"/>
    <path class="y" d="M59 40l2-4a4 4 0 00-2-5 4 4 0 00-5 4l1 4-11 29 6 1zM4 111l-3 4a4 4 0 001 5 4 4 0 005-3l1-4 14-27-5-2z"/>
    <path class="z" d="M21 140v6l27-3a6 6 0 005-8l-9-19-3-6-13-3c-11 8-1 17 11 26l2 1z"/>
    <path class="z" d="M11 156a2 2 0 002 0l9-11v-5l-3-2a2 2 0 00-3 1l-6 15a2 2 0 001 2z"/>
    <path class="v" d="M19 139l1 6 1-1 25-2a6 6 0 005-8l-7-16v-2l-3-6-13-3c-11 8-1 17 11 26z"/>
    <path class="n" d="M9 154a2 2 0 002 0l9-11-1-5-3-2a2 2 0 00-3 1l-6 15a2 2 0 002 2z"/>
    <path class="n" d="M18 138l1 6 26-3a6 6 0 005-8l-7-16v-9l-17-3c-12 8-1 18 12 27z"/>
    <circle class="y" cx="7.5" cy="7.5" r="7.5" transform="translate(28 52)"/>
    <path class="y" d="M25 72l11 7 9-2-5-5v-7l-8-1c-1 3-2 6-7 8z"/>
    <path class="r" d="M24 107l19 3 5-21c2-6 0-11-3-15a3 3 0 00-4-3h-1c0 7-5 5-12 0h-1a5 5 0 00-4 5l1 6a37 37 0 002 6c2 6 1 12-2 19z"/>
    <path class="r" d="M15 85l9 3 4-15-2-1a5 5 0 00-6 3zM41 71l5 6 6-10-7-4z"/>
    <path class="x" d="M26 57c5 2 10 2 15 0v-6H26z"/>
    <path class="r" d="M188 36L61 48a2 2 0 01-2-3l-3-31a2 2 0 012-3L185 0a2 2 0 013 2l2 32a2 2 0 01-2 2z"/>
    <circle class="aa" cx="9.9" cy="9.9" r="9.9" transform="translate(66 18)"/>
    <path class="aa" d="M98 19a2 2 0 001 4l77-7a2 2 0 000-4zM99 29a2 2 0 001 4l77-7a2 2 0 000-4z"/>
  </g>
</svg>