<svg xmlns="http://www.w3.org/2000/svg" xmlns:xlink="http://www.w3.org/1999/xlink" width="253.17" height="198.9"><defs><linearGradient id="a" x1=".35" y1="1" x2=".35" gradientUnits="objectBoundingBox"><stop offset="0" stop-color="gray" stop-opacity=".25"/><stop offset=".54" stop-color="gray" stop-opacity=".12"/><stop offset="1" stop-color="gray" stop-opacity=".1"/></linearGradient><linearGradient id="b" x1=".5" y1="1" x2=".5" y2="0" xlink:href="#a"/><style>.d,.p{fill:#fff}.e{fill:#6c63ff;opacity:.1}.g{fill:#b0605d}.i{fill:#ffb9b9}.j{opacity:.05}.k{fill:#ffd6ef}.l{fill:#cdd0db}.o{fill:#6b7999}.p{opacity:.2}</style></defs><g><path d="M123.61 17.45c-9.06-1.09-17.54-4.43-26.1-7.25a233.24 233.24 0 00-29.06-7.51C57.97.69 47.16-.62 36.65.3S15.89 4.61 9.19 10.75c-11.36 10.41-10.4 26.2-6.65 40.12C7 67.37 14.7 83.7 27.28 97.77c8.96 10 20.19 18.65 31.32 27.24 6.3 4.84 12.65 9.72 20 13.54 6.84 3.54 14.4 6.08 21.9 8.58 8 2.67 16.02 5.36 24.3 7.4 26.38 6.54 54.15 6.33 81.31 5.75 9.56-.2 19.55-.53 27.57-4.27a34.81 34.81 0 0014.07-12.69c4.42-6.6 7.2-14.49 4.07-21.85-4.62-10.87-20.46-17.27-25.73-27.97-6.76-13.73 6.36-28.25 2.65-42.54-1.54-5.95-5.9-11.32-10.52-16.34-11-11.95-25.64-22.83-45.3-21.24-16.66 1.34-31.85 6.16-49.3 4.07z" fill="#fff3f2" opacity=".7"/><path d="M397.38 85.35h76.12a7.54 7.54 0 017.54 7.51v166.68a7.54 7.54 0 01-7.54 7.52h-76.12a7.54 7.54 0 01-7.54-7.52V92.86a7.54 7.54 0 017.54-7.51z" transform="translate(-314.37 -74.58)" fill="url(#a)"/><rect width="89.81" height="179.62" rx="26.87" transform="rotate(180 82.98 95.9)" fill="#2f2e41"/><path class="d" d="M159.35 175.07H82.77V28.88h76.58z"/><circle class="d" cx=".7" cy=".7" r=".7" transform="translate(129.42 19.82)"/><rect class="d" width="15.32" height="1.39" rx=".7" transform="rotate(180 63.32 10.6)"/><circle class="d" cx="4.87" cy="4.87" r="4.87" transform="translate(116.54 177.16)"/><ellipse class="e" cx="61.77" cy="11.92" rx="61.77" ry="11.92" transform="translate(55.64 175.07)"/><path class="e" d="M91.52 51.52h59.1v79.04h-59.1z"/><path d="M518.63 299.11l-.44-.48c1.17-1.34 2.39-2.7 2.38-4.42-.01-2.08-1.86-3.68-2.55-5.65-.94-2.67.36-5.55.9-8.33a15.63 15.63 0 00-3.4-12.88 4.49 4.49 0 00-1.98-1.51c-1.22-.4-2.53.15-3.81.3-4.23.52-8.08-3.12-12.33-2.8a2.29 2.29 0 00-.81.19 3.46 3.46 0 00-1.2 1.34c-1.31 1.95-3.53 2.92-5.73 3.9a3.08 3.08 0 00-.79.35c-.66.31-1.3.63-1.93 1-3.06 1.84-3.55 4.2-2.6 6.16a6.01 6.01 0 001.5 1.89 3.55 3.55 0 01-.1.35c-.62 2.25-2.8 4.27-2.4 6.6a4.08 4.08 0 00.48 1.3c.65 1.17 1.72 2.18 2.13 3.46a3.45 3.45 0 01.1.39 5.2 5.2 0 01-.62 3.23c-4.66 1.07-9.92 3.06-10.33 6.56-.71 6.1-2.86 22.93-2.86 22.93s-1.44 7.79 2.03 8.74c1.09.3 2.67-.1 4.94-1.62l-.12.36-.08.24a71.3 71.3 0 00-2.38 9.12h33.48a36.69 36.69 0 00-1.31-5.73l-.12-.38a25.64 25.64 0 002.92 1.05 5.23 5.23 0 003.02.13c2.9-.86 3.2-4.78 3.2-4.78l1.24-9.57 1.5-14.25a5.68 5.68 0 00.32-1.93 7.93 7.93 0 00-2.25-5.26zm-25.4-8.98l.03-.5.05.03a4.35 4.35 0 01-.04.47v.03a6.3 6.3 0 01-.31 1.46 9.4 9.4 0 00.26-1.49zm16.88 34.5a2.38 2.38 0 01-1.74-.15l.24.45a.06.06 0 010 .02l-.05-.03-.57-.3a14.09 14.09 0 011.12-3.33 27.84 27.84 0 001.17-2.72c.14-.41.26-.78.36-1.13a38.64 38.64 0 00.22 4.59c.21 1.65-.2 2.35-.75 2.6z" transform="translate(-376.52 -209.27)" fill="url(#b)"/><path class="g" d="M110.73 61.89a4.33 4.33 0 00-1.91 2.09c-.46 1.49.69 2.98.8 4.53.2 2.82-2.99 5.15-2.52 7.94.33 1.9 2.29 3.2 2.66 5.1.55 2.78-2.45 5.22-2.22 8.03a5.58 5.58 0 002.36 3.7 11.45 11.45 0 005.75 2.36c-.14-2.4-1.93-4.6-1.62-7 .2-1.64 1.36-2.98 2.03-4.5 1.18-2.66.8-5.74.1-8.56s-1.73-5.6-1.78-8.51c-.03-1.75.8-4.32.2-5.98-.74-2.02-2.49-.13-3.85.8z"/><path d="M110.97 61.4a4.33 4.33 0 00-1.91 2.1c-.46 1.48.69 2.97.8 4.52.2 2.82-2.98 5.15-2.51 7.94.32 1.91 2.28 3.21 2.65 5.1.55 2.78-2.45 5.22-2.21 8.03a5.58 5.58 0 002.35 3.7 11.45 11.45 0 005.75 2.37c-.14-2.41-1.93-4.61-1.62-7 .21-1.65 1.37-3 2.03-4.5 1.18-2.66.8-5.74.1-8.56s-1.72-5.62-1.77-8.52c-.04-1.75.79-4.32.18-5.98-.73-2.02-2.47-.13-3.84.8z" opacity=".1"/><path class="i" d="M113.54 97.96s-12.89-13.13-3.16-12.16a6.54 6.54 0 004.7-.91 4.71 4.71 0 001.73-3.48 14.44 14.44 0 00-.83-5.6s13.13-10.45 10.45 2.68a22.39 22.39 0 00-.5 4.06c-.05 2.79.87 3.86 2.15 4.3 2.17.74 5.4-.3 6.87 2.1 2.67 4.39-21.4 9.01-21.4 9.01z"/><path class="j" d="M126.43 78.5a22.39 22.39 0 00-.5 4.06 9.94 9.94 0 01-1.07.3 10.48 10.48 0 01-8.05-1.46 14.44 14.44 0 00-.83-5.59s13.13-10.44 10.45 2.7z"/><path class="i" d="M133 72.18a10.46 10.46 0 11-20.91 0l.01-.58a10.46 10.46 0 0120.9.58z"/><path class="j" d="M113.54 97.96s-12.89-13.13-3.16-12.16a6.54 6.54 0 004.7-.91c-1.88 3.12-4 8.73 5.52 8.2 8.72-.48 8.57-3.95 7.48-6.24 2.17.75 5.4-.3 6.87 2.11 2.67 4.38-21.4 9-21.4 9z"/><path class="k" d="M143.44 97.44a3.3 3.3 0 01-.22.52l-3.3 2.52-.43.33-5.51 4.2s.5.89-.22 3.48a23.43 23.43 0 01-1.48 3.82 14.22 14.22 0 00-1.1 3.31.37.37 0 010 .05c-.05.22-.08.42-.11.63a17.76 17.76 0 00.18 6.22.84.84 0 00.01.08c.12.56.23.93.27 1.08l.03.06s.11.31.29.86l.01.05a37.05 37.05 0 011.38 5.92H100.6a72.16 72.16 0 012.37-9.15l.12-.35-.58.38c-2.27 1.42-3.77 1.57-4.75 1.02-2.74-1.53-1.48-8.46-1.48-8.46s2.1-16.7 2.8-22.74c.4-3.47 5.54-5.44 10.08-6.5a53.8 53.8 0 017.02-1.15h.04l-.18.24-.01.02c-.09.11-.2.25-.32.43a16.76 16.76 0 00-1.99 3.55c-.75 1.99-.88 4.15 1.33 5.26a10.82 10.82 0 005.32.7c3.88-.21 6-1.02 7.07-2.05a2.9 2.9 0 00.88-1.59 5.53 5.53 0 00-1.24-3.9 8.48 8.48 0 00-.56-.7l6.38.46a12.68 12.68 0 018.25 3.8c.15.15.3.31.43.49 2.79 3.23 2.27 6 1.86 7.12z"/><path class="j" d="M105.27 96.99s.5 3.89-.48 5.1-1.22 6.81 0 10.22z"/><rect class="l" width="16.54" height="6.81" rx="3.4" transform="translate(106.5 105.25)"/><rect class="j" width="16.54" height="6.81" rx="3.4" transform="translate(106.5 105.25)"/><rect class="l" width="16.54" height="6.81" rx="3.4" transform="translate(106.5 105.5)"/><circle cx=".73" cy=".73" r=".73" transform="translate(118.77 108.05)" fill="#9da7c0"/><path class="j" d="M99.45 116.04a4.73 4.73 0 012.75-2.9 4.28 4.28 0 002.36-2.11c.96-2.12 2.66-4.31 7.04-2.85s-1.22 2.43-1.22 2.43 9.97-1.46 6.08 1.46a37.25 37.25 0 01-8.75 4.62l-2.4 2.53a3.58 3.58 0 01-5.35-.1 3.1 3.1 0 01-.5-3.08z"/><path class="i" d="M99.21 115.55a4.73 4.73 0 012.75-2.9 4.28 4.28 0 002.36-2.1c.96-2.13 2.66-4.32 7.04-2.86s-1.22 2.43-1.22 2.43 9.97-1.46 6.08 1.46a37.25 37.25 0 01-8.76 4.62l-2.4 2.54a3.58 3.58 0 01-5.35-.11 3.1 3.1 0 01-.5-3.08z"/><path class="j" d="M133.49 120.58l-1.7 4.13-2.2-1.6-6.07-4.47-4.14-2.68c-5.83-4.38 0-5.1 0-5.1-2.19-.98 0-1.95 0-1.95 7.79-1.7 6.33 4.62 6.33 4.62l4.93 2.55 1.63.85z"/><path class="i" d="M133.97 120.1l-1.7 4.13-2.19-1.6-6.08-4.48-4.13-2.68c-5.84-4.38 0-5.1 0-5.1-2.2-.98 0-1.95 0-1.95 7.78-1.7 6.32 4.62 6.32 4.62l4.93 2.56 1.64.85z"/><path class="j" d="M133.97 120.1l-1.7 4.13-2.19-1.6c1.97.07 4.3-.89 1.03-7.03l1.64.85z"/><path class="k" d="M142.97 95.53l.47 1.91-1.44 14.14-1.22 9.48s-.48 6.33-6.08 4.62-6.08-3.4-6.08-3.4 8.03 2.68 2.92-6.8c0 0 2.92 1.45 2.43-2.44a72.74 72.74 0 010-10.7z"/><path class="j" d="M133 72.18a10.46 10.46 0 01-8.14 10.2 5.3 5.3 0 01-.35-3.04c.49-2 2.79-3.44 2.54-5.47a1.35 1.35 0 00-.25-.64c-.51-.67-1.56-.34-2.39-.17a4.55 4.55 0 01-5.09-3.14 7.1 7.1 0 01-7.23 1.68 10.46 10.46 0 0120.9.58z"/><path class="g" d="M119.58 69.44a4.54 4.54 0 005.09 3.13c.83-.16 1.87-.5 2.39.18a1.31 1.31 0 01.23.63c.26 2.03-2.04 3.48-2.53 5.47-.51 2.05.97 4.03 1.3 6.11a23.09 23.09 0 010 3.46 4.19 4.19 0 001.13 3.16 2.03 2.03 0 003-.22c2.74 1.45 1.65 5.93 3.73 8.22a5.61 5.61 0 004.73 1.41 2 2 0 001.1-.36 1.95 1.95 0 00.55-1.02 8.3 8.3 0 00-.21-4.92 5.14 5.14 0 01-.56-2.31 3.42 3.42 0 01.84-1.66c1.3-1.62 3.09-3.18 3.08-5.27s-1.82-3.65-2.5-5.6c-.9-2.65.36-5.5.89-8.26a15.68 15.68 0 00-3.31-12.77 4.39 4.39 0 00-1.95-1.5c-1.2-.39-2.48.15-3.73.3-4.13.52-7.88-3.1-12.03-2.77a2.21 2.21 0 00-.8.18 3.43 3.43 0 00-1.16 1.33c-1.83 2.74-5.43 3.52-8.25 5.22-8.22 4.95 2.67 13.92 8.97 7.86z"/><path d="M169.77 189.76s-3.53-17.84 3.73-30.07a27.55 27.55 0 003.8-17.01 46.35 46.35 0 00-1.7-8.3" fill="none" stroke="#535461" stroke-miterlimit="10" stroke-width="2"/><path class="o" d="M180.13 126.64c-.2 2.13-4.63 7.95-4.63 7.95s-3.28-6.53-3.09-8.66a3.87 3.87 0 117.71.71zM185.41 139.02c-1.32 1.68-8.2 4.17-8.2 4.17s.8-7.27 2.11-8.95a3.87 3.87 0 016.08 4.78zM183.28 159.15c-1.99.78-9.17-.55-9.17-.55s4.35-5.87 6.34-6.66a3.87 3.87 0 112.83 7.2zM178.24 174.02c-1.83 1.1-9.13 1.01-9.13 1.01s3.29-6.53 5.12-7.63a3.87 3.87 0 114.01 6.62zM169.08 142.85c1.4 1.63 8.37 3.82 8.37 3.82s-1.1-7.23-2.48-8.85a3.87 3.87 0 10-5.89 5.03zM163.41 160.31c1.81 1.14 9.13 1.14 9.13 1.14s-3.21-6.57-5.02-7.7a3.87 3.87 0 10-4.1 6.57zM160.22 178.04c1.6 1.43 8.8 2.67 8.8 2.67s-2.05-7.02-3.65-8.44a3.87 3.87 0 10-5.15 5.77zM108.41 38.36a9.2 9.2 0 00-9.2-9.21H49.03a9.2 9.2 0 000 18.42l41.95-.09 9.64 8.42v-8.46a9.2 9.2 0 007.78-9.08z"/><circle class="p" cx="3.18" cy="3.18" r="3.18" transform="translate(47.45 35.5)"/><circle class="p" cx="3.18" cy="3.18" r="3.18" transform="translate(58.25 35.5)"/><circle class="p" cx="3.18" cy="3.18" r="3.18" transform="translate(69.04 35.5)"/><path class="o" d="M91.4 143.21h25.28v7.54H91.4z"/><path class="e" d="M125.2 143.21h25.29v7.54h-25.3z"/></g></svg>