<svg xmlns="http://www.w3.org/2000/svg" viewBox="0 0 229.19 30.75">
  <g data-name="Layer 2">
    <g data-name="Camada 1">
      <path fill="#686e7b" d="M12.39 7.15a7.84 7.84 0 00-4.16-1.08 7.88 7.88 0 00-7.18 4.22 9.48 9.48 0 00-1 4.54 9.09 9.09 0 001.11 4.52 8 8 0 003.08 3.09 8.9 8.9 0 004.46 1.12 9.23 9.23 0 003.08-.56 8.76 8.76 0 002.63-1.46.91.91 0 00.36-.76 1.16 1.16 0 00-.42-.81 1.09 1.09 0 00-.75-.24 1.27 1.27 0 00-.79.3A5.41 5.41 0 0111 21a7 7 0 01-2.27.39 6.4 6.4 0 01-3.33-.85 6.19 6.19 0 01-2.28-2.32 6.8 6.8 0 01-.79-2.61H15a1.11 1.11 0 00.81-.3 1 1 0 00.32-.8 9.61 9.61 0 00-1-4.36 7.32 7.32 0 00-2.74-3zm-7.3 1.93a5.81 5.81 0 013.14-.85 5.54 5.54 0 013 .82 5.41 5.41 0 012 2.26 6.86 6.86 0 01.62 2.29H2.35A7 7 0 013 11.42a5.71 5.71 0 012.09-2.34zM41.56 6.91A6.19 6.19 0 0038.28 6a7 7 0 00-3.49.88A6.29 6.29 0 0032.61 9a6 6 0 00-2-2.11 6.53 6.53 0 00-6.55 0 6.34 6.34 0 00-1.44 1.24v-.7a1.22 1.22 0 00-.33-.88 1.15 1.15 0 00-.86-.35 1.19 1.19 0 00-.9.35 1.22 1.22 0 00-.33.88v14.78a1.17 1.17 0 00.33.86 1.22 1.22 0 00.9.33 1.13 1.13 0 001.19-1.19v-9.3a4.54 4.54 0 011.24-3.31 4.32 4.32 0 013.21-1.27 3.8 3.8 0 013 1.3 5.09 5.09 0 011.16 3.53v9.05a1.15 1.15 0 00.35.86 1.22 1.22 0 00.88.33 1.13 1.13 0 001.19-1.19V13.1a4.72 4.72 0 011.21-3.47A4.21 4.21 0 0138 8.33a3.8 3.8 0 013 1.3 5.14 5.14 0 011.16 3.53v9.05a1.15 1.15 0 00.35.86 1.22 1.22 0 00.88.33 1.13 1.13 0 001.19-1.19v-9a8.34 8.34 0 00-.8-3.76 6 6 0 00-2.22-2.54zM63.12 7.21a8.84 8.84 0 00-4.49-1.14 8.63 8.63 0 00-4.42 1.13 8.36 8.36 0 00-3.1 3.09 8.75 8.75 0 00-1.18 4.41v14.82a1.14 1.14 0 001.22 1.23 1.18 1.18 0 00.87-.33 1.22 1.22 0 00.33-.9v-9.23a7.44 7.44 0 002.74 2.37 8.09 8.09 0 003.82.9 8.27 8.27 0 007.36-4.27 8.87 8.87 0 001.12-4.46 8.82 8.82 0 00-1.15-4.49 8.44 8.44 0 00-3.12-3.13zm1.05 11a6.11 6.11 0 01-2.28 2.34 6.64 6.64 0 01-6.5 0 5.92 5.92 0 01-2.26-2.34 6.88 6.88 0 01-.82-3.34 6.85 6.85 0 01.82-3.36 6.05 6.05 0 012.26-2.34 6.51 6.51 0 016.5 0 6.25 6.25 0 012.28 2.34 6.75 6.75 0 01.83 3.32 6.78 6.78 0 01-.83 3.34zM82.11 6.44A4.92 4.92 0 0079.88 6a6.48 6.48 0 00-3.31.88 7 7 0 00-2.06 1.92V7.42a1.19 1.19 0 10-2.38 0v14.79a1.2 1.2 0 00.31.88 1.4 1.4 0 001.76 0 1.2 1.2 0 00.31-.88v-9.39a4.11 4.11 0 01.81-2.55 4.66 4.66 0 012.16-1.58 6.86 6.86 0 013.13-.36l1 .06a1.3 1.3 0 00.73-.13.89.89 0 00.42-.62 1 1 0 00-.65-1.2zM96.73 7.15a7.84 7.84 0 00-4.16-1.08A8 8 0 0088.3 7.2a7.85 7.85 0 00-2.9 3.09 9.37 9.37 0 00-1.06 4.54 9 9 0 001.12 4.52 8 8 0 003.08 3.09A8.87 8.87 0 0093 23.56a9.19 9.19 0 003.12-.56 8.7 8.7 0 002.64-1.46.91.91 0 00.36-.76 1.13 1.13 0 00-.43-.81 1.09 1.09 0 00-.75-.24 1.31 1.31 0 00-.79.3 5.45 5.45 0 01-1.83 1 7.1 7.1 0 01-2.28.39 6.45 6.45 0 01-3.33-.85 6.09 6.09 0 01-2.27-2.32 6.47 6.47 0 01-.79-2.61h12.67a1.13 1.13 0 00.82-.3 1 1 0 00.31-.8 9.48 9.48 0 00-1-4.36 7.32 7.32 0 00-2.72-3.03zm-7.3 1.93a5.83 5.83 0 013.14-.85 5.54 5.54 0 013 .82 5.34 5.34 0 012 2.26 6.64 6.64 0 01.62 2.29H86.7a7 7 0 01.64-2.18 5.71 5.71 0 012.09-2.34zM115.38 7.15a7.84 7.84 0 00-4.16-1.08 7.85 7.85 0 00-7.17 4.22 9.48 9.48 0 00-1 4.54 9.09 9.09 0 001.11 4.52 8 8 0 003.08 3.09 8.89 8.89 0 004.5 1.12 9.19 9.19 0 003.08-.58 8.7 8.7 0 002.64-1.46.91.91 0 00.36-.76 1.16 1.16 0 00-.42-.81 1.1 1.1 0 00-.76-.24 1.26 1.26 0 00-.78.3A5.51 5.51 0 01114 21a7 7 0 01-2.28.39 6.38 6.38 0 01-3.32-.85 6 6 0 01-2.28-2.32 6.47 6.47 0 01-.79-2.61H118a1.13 1.13 0 00.82-.3 1 1 0 00.32-.8 9.49 9.49 0 00-1-4.36 7.26 7.26 0 00-2.76-3zm-7.3 1.93a5.83 5.83 0 013.14-.85 5.49 5.49 0 013 .82 5.36 5.36 0 012 2.26 6.86 6.86 0 01.61 2.29h-11.48a7 7 0 01.65-2.18 5.69 5.69 0 012.08-2.34zM138.09 9.68A6.8 6.8 0 00135.31 7a8.39 8.39 0 00-4-.93 7.62 7.62 0 00-3.7.9 7 7 0 00-2 1.59V7.45a1.22 1.22 0 00-.33-.9 1.18 1.18 0 00-.87-.33 1.14 1.14 0 00-1.22 1.23v14.76a1.17 1.17 0 00.33.86 1.21 1.21 0 00.89.33 1.13 1.13 0 001.2-1.19v-9.3a4 4 0 01.72-2.35 5 5 0 012-1.64 6.44 6.44 0 012.78-.59 6.37 6.37 0 012.87.63 4.61 4.61 0 012 1.88 6.26 6.26 0 01.74 3.2v8.17a1.1 1.1 0 00.35.84 1.15 1.15 0 00.88.35 1.11 1.11 0 00.84-.35 1.13 1.13 0 00.35-.84V14a8.68 8.68 0 00-1.05-4.32zM179.47 8.27a7.86 7.86 0 00-4.16-1.08 7.88 7.88 0 00-7.18 4.22 9.51 9.51 0 00-1 4.54 9.07 9.07 0 001.11 4.52 8.12 8.12 0 003.08 3.1 9.18 9.18 0 007.59.53 8.55 8.55 0 002.63-1.46.91.91 0 00.36-.75 1.16 1.16 0 00-.42-.82 1.09 1.09 0 00-.75-.24 1.33 1.33 0 00-.79.3 5.41 5.41 0 01-1.84 1 7 7 0 01-2.27.39 6.49 6.49 0 01-3.33-.84 6.22 6.22 0 01-2.28-2.33 6.54 6.54 0 01-.79-2.6h12.68a1.11 1.11 0 00.81-.3 1.06 1.06 0 00.32-.8 9.5 9.5 0 00-1-4.37 7.36 7.36 0 00-2.77-3.01zm-7.3 1.94a5.72 5.72 0 013.14-.85 5.53 5.53 0 013 .81 5.47 5.47 0 012 2.26 6.92 6.92 0 01.62 2.3h-11.5a7.14 7.14 0 01.65-2.19 5.62 5.62 0 012.09-2.33zM191.76 22.14H191a1.61 1.61 0 01-1.4-.85 4 4 0 01-.55-2.2V1.19a1.17 1.17 0 00-.33-.86 1.3 1.3 0 00-1.73 0 1.17 1.17 0 00-.33.86v17.9a7 7 0 00.55 2.83 4.58 4.58 0 001.54 1.91 3.84 3.84 0 002.25.69h.4a1.53 1.53 0 001-.33 1 1 0 00.4-.86 1.28 1.28 0 00-.29-.86.92.92 0 00-.75-.33zM207.45 8.34A8.6 8.6 0 00203 7.19a8.69 8.69 0 00-4.46 1.15 8.34 8.34 0 00-3.12 3.12 8.75 8.75 0 00-1.15 4.54 8.85 8.85 0 001.12 4.46 8.22 8.22 0 007.36 4.27 8 8 0 004.1-1.05 7.64 7.64 0 002.43-2.23v1.93a1.13 1.13 0 00.35.86 1.22 1.22 0 00.88.33 1.23 1.23 0 00.88-.33 1.12 1.12 0 00.34-.86V16a9 9 0 00-1.18-4.49 8.44 8.44 0 00-3.1-3.17zm-1.2 13.3a6.67 6.67 0 01-6.48 0 6.2 6.2 0 01-2.29-2.34 6.62 6.62 0 01-.85-3.35 6.61 6.61 0 01.85-3.36 6.35 6.35 0 012.29-2.34 6.29 6.29 0 018.74 2.34 6.7 6.7 0 01.84 3.36 6.72 6.72 0 01-.84 3.35 6.12 6.12 0 01-2.26 2.34zM228.61 17.57a4.86 4.86 0 00-2-1.73 11.94 11.94 0 00-3.72-1.11 12.31 12.31 0 01-2.68-.69 3.21 3.21 0 01-1.35-.95 2.05 2.05 0 01-.4-1.25 2.12 2.12 0 011-1.78 4.82 4.82 0 012.76-.7 6.33 6.33 0 012.39.42 4.71 4.71 0 011.82 1.34 1.4 1.4 0 00.83.45 1.27 1.27 0 00.87-.14 1 1 0 00.5-.72 1.11 1.11 0 00-.25-.85A6.68 6.68 0 00226 7.91a8.38 8.38 0 00-3.62-.72 8.86 8.86 0 00-3.11.53A5.09 5.09 0 00217 9.33a4.13 4.13 0 00-.85 2.67 3.79 3.79 0 001.48 3 9.46 9.46 0 004.64 1.76 9 9 0 013.52 1.14 2.22 2.22 0 011.07 1.87 2.47 2.47 0 01-1.07 1.93 5.5 5.5 0 01-3.36.8 7.6 7.6 0 01-2.75-.47 4.76 4.76 0 01-2-1.35 1.29 1.29 0 00-.79-.41 1.24 1.24 0 00-1.38 1.07 1 1 0 00.28.85 6.92 6.92 0 003 1.88 11.11 11.11 0 003.67.63 9.07 9.07 0 003.5-.63 5.71 5.71 0 002.39-1.74 4.31 4.31 0 00.28-4.74z"/>
      <path fill="#ff8c80" d="M150.21 17.33h-1.63v-3a6.07 6.07 0 10-2 0v3H145a1 1 0 000 2h1.63v4a1 1 0 002 0v-4h1.63a1 1 0 000-2zm-6.7-9a4.07 4.07 0 114.07 4.06 4.07 4.07 0 01-4.07-4.05z"/>
      <path fill="#ff8c80" d="M163.39 11.43c-.55-6.12-5.21-10.51-11.87-11.2a1.14 1.14 0 00-1.26 1 1.15 1.15 0 001 1.27c4.39.45 9.28 3.09 9.82 9.11.65 6.61-3.92 10.25-8.74 10.92a1.15 1.15 0 00.16 2.29h.16c7-.95 11.4-6.47 10.73-13.39z"/>
    </g>
  </g>
</svg>
