<svg height="512" viewBox="0 0 504.5 504.5" width="512" xmlns="http://www.w3.org/2000/svg"><path d="M264.75 90v165a60 60 0 0060-60c0-52.5-60-52.5-60-105z" fill="#ff6b8a"/><path d="M264.75 90h1-91v45a30 30 0 0030 30v90h60c16.57 0 30-26.86 30-60 0-52.5-30-52.5-30-105z" fill="#ff8d7e"/><path d="M99.75 177.5a7.5 7.5 0 010-15h15a7.5 7.5 0 100-15h-15c-12.4 0-22.5 10.1-22.5 22.5s10.1 22.5 22.5 22.5h120v-15z" fill="#c27749"/><path d="M354.75 87.5a7.5 7.5 0 00-7.5 7.5c0 45.49-37 82.5-82.5 82.5h-45v15h45c53.76 0 97.5-43.74 97.5-97.5a7.5 7.5 0 00-7.5-7.5z" fill="#a45e43"/><path d="M114.75 20h-15l-20 52.5 20 52.5h15c8.25 0 15-6.75 15-15V35c0-8.25-6.75-15-15-15z" fill="#ffb4a9"/><path d="M84.75 20c-8.25 0-15 6.75-15 15v75c0 8.25 6.75 15 15 15h15V20z" fill="#ffd9d4"/><circle cx="99.75" cy="50" fill="#353535" r="7.5"/><path d="M182.25 285v196.6l-24.87 8.28a7.5 7.5 0 004.74 14.23l30-10a7.5 7.5 0 005.13-7.11V285z" fill="#c27749"/><path d="M257.25 285v196.6l24.87 8.28a7.5 7.5 0 01-4.74 14.23l-30-10a7.5 7.5 0 01-5.13-7.11V285z" fill="#a45e43"/><path d="M234.75 165h-22.5l-7.5 10-7.5-10h-2.5a20 20 0 00-20 20v40l45 45 35-60z" fill="#fff"/><path d="M244.75 165h-2.5l-7.5 75 30-15v-40a20 20 0 00-20-20z" fill="#ffd9d4"/><path d="M264.75 255v-30a30 30 0 01-30-30l-15 60 15 72.43V415a15 15 0 0029.87 1.91l14.62-114.57a59.75 59.75 0 00-14.5-47.34z" fill="#49c9ff"/><path d="M234.75 285v-90h-22.5v-30h-15v30c0 12.4-10.1 22.5-22.5 22.5V255a59.75 59.75 0 00-14.5 47.34l14.63 114.57a15 15 0 0029.87-1.91v-87.57a44.91 44.91 0 0030 0z" fill="#7dd9ff"/><path d="M264.75 232.5a37.54 37.54 0 01-37.5-37.5v-30h15v30c0 12.4 10.1 22.5 22.5 22.5z" fill="#49c9ff"/><path d="M344.75 0c3.85 0 7.34 1.46 10 3.84a15 15 0 0125 11.16c0 18.82-25 30-25 30s-25-11.18-25-30a15 15 0 0115-15zM399.75 65c3.85 0 7.34 1.46 10 3.84a15 15 0 0125 11.16c0 18.82-25 30-25 30s-25-11.18-25-30a15 15 0 0115-15z" fill="#ff6b8a"/><path d="M219.75 45v90a45 45 0 0045-45z" fill="#a45e43"/><path d="M219.75 45l-45 45a45 45 0 0045 45c8.28 0 15-20.15 15-45s-6.72-45-15-45z" fill="#c27749"/><path d="M219.75 45a45 45 0 00-45 45 45 45 0 0045-45z" fill="#ff8d7e"/><path d="M264.75 90a45 45 0 00-45-45 45 45 0 0045 45z" fill="#ff6b8a"/><circle cx="219.75" cy="22.5" fill="#ff8d7e" r="22.5"/></svg>