<svg xmlns="http://www.w3.org/2000/svg" width="24" height="24"><path d="M3.43 3.43a3.43 3.43 0 115.52 2.71l-.07.06a3.43 3.43 0 01-5.45-2.77zm11.62 2.71l.07.06a3.43 3.43 0 10-.07-.06zM9.03 8.57a3.43 3.43 0 11-.46 1.71 3.43 3.43 0 01.46-1.7zm-6.46 0h4.58a5.15 5.15 0 001.02 5.14H7.7a4.29 4.29 0 00-4.03 2.85 6.4 6.4 0 01-1.6-.94A5.57 5.57 0 010 11.14a2.57 2.57 0 012.57-2.57zm13.71 5.14a4.29 4.29 0 014.04 2.85 6.4 6.4 0 001.6-.94A5.57 5.57 0 0024 11.14a2.57 2.57 0 00-2.57-2.57h-4.58a5.15 5.15 0 01-1.02 5.15zm2.38 3.3a2.57 2.57 0 01.2.99 5.57 5.57 0 01-2.08 4.48A7.6 7.6 0 0112 24a7.6 7.6 0 01-4.78-1.52A5.57 5.57 0 015.14 18a2.57 2.57 0 012.57-2.57h8.57a2.57 2.57 0 012.38 1.59z"/></svg>